<?xml version="1.0" encoding="UTF-8" standalone="no"?>
<svg xmlns="http://www.w3.org/2000/svg" width="1200" height="820" viewBox="0 0 1200 820" style="font-family: Arial, Helvetica, sans-serif;">
  <!-- Background -->
  <rect width="100%" height="100%" fill="#f3f4f6"/>
  <!-- Header -->
  <rect x="24" y="20" width="1152" height="72" rx="10" fill="#ffffff" stroke="#e6e7ea"/>
  <text x="44" y="62" fill="#111827" font-size="28" font-weight="700">Rumble Listener — Admin UI</text>
  <text x="1040" y="62" fill="#6b7280" font-size="14">Local / Admin</text>

  <!-- Left column: Bot IDs -->
  <g transform="translate(24,112)">
    <rect width="540" height="280" rx="10" fill="#ffffff" stroke="#e6e7ea"/>
    <text x="20" y="36" font-size="18" fill="#111827" font-weight="700">Monitored Rumble Bot IDs</text>

    <!-- List box -->
    <rect x="20" y="56" width="500" height="150" rx="6" fill="#f9fafb" stroke="#eaeef2"/>
    <text x="34" y="90" font-size="14" fill="#374151">693167035068317736</text>
    <text x="34" y="114" font-size="14" fill="#374151">(Rumble Royale App)</text>
    <text x="34" y="142" font-size="13" fill="#9ca3af">No other bot IDs configured</text>

    <!-- Add bot form -->
    <rect x="20" y="220" width="340" height="36" rx="6" fill="#ffffff" stroke="#e6e7ea"/>
    <text x="28" y="244" font-size="13" fill="#6b7280">Enter Bot ID...</text>
    <rect x="372" y="220" width="148" height="36" rx="6" fill="#10b981"/>
    <text x="412" y="244" font-size="14" fill="#ffffff" font-weight="700">Add Bot</text>
  </g>

  <!-- Right column: Channel mapping -->
  <g transform="translate(612,112)">
    <rect width="540" height="420" rx="10" fill="#ffffff" stroke="#e6e7ea"/>
    <text x="20" y="36" font-size="18" fill="#111827" font-weight="700">Channel → Buildable Part Map</text>

    <!-- Table header -->
    <rect x="20" y="56" width="500" height="36" rx="6" fill="#111827" opacity="0.03"/>
    <text x="32" y="80" font-size="13" fill="#374151" font-weight="700">Channel ID</text>
    <text x="260" y="80" font-size="13" fill="#374151" font-weight="700">Buildable</text>
    <text x="420" y="80" font-size="13" fill="#374151" font-weight="700">Part</text>

    <!-- Row 1 -->
    <rect x="20" y="96" width="500" height="56" rx="6" fill="#f8fafc" stroke="#eef2f6"/>
    <text x="34" y="128" font-size="13" fill="#111827">1309962373846532159</text>
    <text x="280" y="128" font-size="13" fill="#111827">snowman</text>
    <text x="430" y="128" font-size="13" fill="#111827">carrot 🥕</text>

    <!-- Row 2 -->
    <rect x="20" y="160" width="500" height="56" rx="6" fill="#ffffff" stroke="#eef2f6"/>
    <text x="34" y="192" font-size="13" fill="#111827">1445102656543523077</text>
    <text x="280" y="192" font-size="13" fill="#111827">snowman</text>
    <text x="430" y="192" font-size="13" fill="#111827">hat 🎩</text>

    <!-- Empty row -->
    <rect x="20" y="224" width="500" height="56" rx="6" fill="#ffffff" stroke="#eef2f6"/>
    <text x="34" y="256" font-size="13" fill="#9ca3af">No mapping</text>

    <!-- Set mapping form -->
    <rect x="20" y="300" width="500" height="36" rx="6" fill="#ffffff" stroke="#e6e7ea"/>
    <text x="28" y="324" font-size="13" fill="#6b7280">Channel ID</text>
    <rect x="192" y="300" width="120" height="36" rx="6" fill="#ffffff" stroke="#e6e7ea"/>
    <text x="200" y="324" font-size="13" fill="#6b7280">Buildable</text>
    <rect x="324" y="300" width="120" height="36" rx="6" fill="#ffffff" stroke="#e6e7ea"/>
    <text x="332" y="324" font-size="13" fill="#6b7280">Part</text>
    <rect x="456" y="300" width="64" height="36" rx="6" fill="#3b82f6"/>
    <text x="468" y="324" font-size="14" fill="#ffffff" font-weight="700">Set</text>

    <!-- Help text -->
    <text x="20" y="360" font-size="12" fill="#6b7280">Mappings are saved to data/rumble_listener_config.json and used by the bot.</text>

    <!-- Preview area: quick simulate -->
    <rect x="20" y="384" width="500" height="20" rx="4" fill="#f8fafc"/>
    <text x="28" y="399" font-size="12" fill="#9ca3af">Preview: Winner announcement in channel 130... will award carrot 🥕</text>
  </g>

  <!-- Bottom area: Notes and actions -->
  <g transform="translate(24,420)">
    <rect width="1152" height="360" rx="10" fill="#ffffff" stroke="#e6e7ea"/>
    <text x="28" y="30" font-size="16" fill="#111827" font-weight="700">Actions & Notes</text>
    <text x="28" y="64" font-size="13" fill="#374151">• Save changes to config file immediately. The bot will pick up updates on cog reload.</text>
    <text x="28" y="86" font-size="13" fill="#374151">• Use the Set Mapping form to add new channel → part rules.</text>
    <text x="28" y="108" font-size="13" fill="#374151">• You can also use the bot commands to add bot IDs and mappings at runtime.</text>

    <rect x="28" y="140" width="360" height="48" rx="8" fill="#111827" opacity="0.03"/>
    <text x="40" y="172" font-size="14" fill="#111827">Run the UI locally: python web/app.py</text>

    <!-- Simulated small screenshot of embed style (fixed: don't use HTML tags inside text) -->
    <g transform="translate(820,36)">
      <rect x="0" y="0" width="300" height="140" rx="8" fill="#111827" opacity="0.03" stroke="#e6e7ea"/>
      <rect x="12" y="12" width="276" height="28" rx="6" fill="#ffedd5" stroke="#ffd1a8"/>
      <text x="24" y="32" font-size="13" fill="#7c2d12" font-weight="700">🎉 user123 found a carrot!</text>
      <rect x="12" y="44" width="276" height="76" rx="6" fill="#ffffff" stroke="#e6e7ea"/>
      <!-- Use tspan elements for emphasis rather than raw HTML tags -->
      <text x="24" y="72" font-size="12" fill="#374151">
        <tspan>You've been awarded </tspan>
        <tspan font-weight="700">carrot</tspan>
        <tspan> for </tspan>
        <tspan font-weight="700">snowman</tspan>
        <tspan>.</tspan>
      </text>
      <text x="24" y="92" font-size="12" fill="#6b7280">Use /stocking show to view your build progress.</text>
    </g>
  </g>

  <!-- Footer small -->
  <text x="36" y="800" font-size="11" fill="#9ca3af">Mockup — not interactive. Colors and layout approximate the real UI.</text>
</svg>